<svg xmlns="http://www.w3.org/2000/svg" version="1.1" xmlns:xlink="http://www.w3.org/1999/xlink" xmlns:svgjs="http://svgjs.com/svgjs" width="64" height="64"><svg width="64" height="64" viewBox="0 0 64 64" fill="none" xmlns="http://www.w3.org/2000/svg">
<g clip-path="url(#clip0_531_23)">
<path d="M28.5625 15.1875H37.4375V47.7812C37.4375 50.8854 36.7292 53.5208 35.3125 55.6875C33.9167 57.8542 31.9688 59.5 29.4688 60.625C26.9688 61.75 24.0417 62.3125 20.6875 62.3125C19.2292 62.3125 17.7083 62.1146 16.125 61.7188C14.5417 61.3438 13.0521 60.7708 11.6562 60C10.2604 59.25 9.09375 58.2917 8.15625 57.125L12.3125 51.375C13.2708 52.4583 14.4167 53.3333 15.75 54C17.0833 54.6875 18.6042 55.0312 20.3125 55.0312C21.875 55.0312 23.1979 54.75 24.2812 54.1875C25.3646 53.625 26.1875 52.8021 26.75 51.7188C27.3333 50.6354 27.625 49.3229 27.625 47.7812V23.0938L28.5625 15.1875ZM5.96875 32.5V31.8438C5.96875 29.2812 6.28125 26.9479 6.90625 24.8438C7.53125 22.7188 8.4375 20.8958 9.625 19.375C10.8333 17.8333 12.2812 16.6458 13.9688 15.8125C15.6771 14.9792 17.5938 14.5625 19.7188 14.5625C22.0104 14.5625 23.9062 15 25.4062 15.875C26.9062 16.7292 28.125 17.9375 29.0625 19.5C30 21.0417 30.7396 22.8646 31.2812 24.9688C31.8229 27.0521 32.2604 29.3125 32.5938 31.75V32.875C32.2604 35.2083 31.7812 37.3854 31.1562 39.4062C30.5312 41.4271 29.7188 43.2083 28.7188 44.75C27.7188 46.2708 26.4688 47.4688 24.9688 48.3438C23.4896 49.1979 21.7188 49.625 19.6562 49.625C17.5521 49.625 15.6562 49.1979 13.9688 48.3438C12.2812 47.4896 10.8333 46.2917 9.625 44.75C8.4375 43.2083 7.53125 41.3958 6.90625 39.3125C6.28125 37.2292 5.96875 34.9583 5.96875 32.5ZM15.7188 31.8438V32.5C15.7188 33.8333 15.8438 35.0729 16.0938 36.2188C16.3646 37.3646 16.7604 38.375 17.2812 39.25C17.8229 40.125 18.4896 40.8125 19.2812 41.3125C20.0938 41.7917 21.0417 42.0312 22.125 42.0312C23.7083 42.0312 24.9896 41.6979 25.9688 41.0312C26.9688 40.3438 27.6979 39.3958 28.1562 38.1875C28.6354 36.9792 28.8854 35.5729 28.9062 33.9688V30.6875C28.9062 29.3542 28.7708 28.1562 28.5 27.0938C28.2292 26.0312 27.8229 25.1354 27.2812 24.4062C26.7604 23.6771 26.0729 23.125 25.2188 22.75C24.3854 22.3542 23.375 22.1562 22.1875 22.1562C21.125 22.1562 20.1875 22.4062 19.375 22.9062C18.5625 23.3854 17.8854 24.0625 17.3438 24.9375C16.8021 25.8125 16.3958 26.8438 16.125 28.0312C15.8542 29.1979 15.7188 30.4688 15.7188 31.8438ZM54.9062 3.5L53.7188 34.8438H45.6875L44.5 3.5H54.9062ZM44.2188 44.5625C44.2188 43.1667 44.7188 41.9896 45.7188 41.0312C46.7188 40.0729 48.0417 39.5938 49.6875 39.5938C51.3125 39.5938 52.6146 40.0729 53.5938 41.0312C54.5938 41.9896 55.0938 43.1667 55.0938 44.5625C55.0938 45.9792 54.5938 47.1667 53.5938 48.125C52.6146 49.0625 51.3125 49.5312 49.6875 49.5312C48.0417 49.5312 46.7188 49.0625 45.7188 48.125C44.7188 47.1667 44.2188 45.9792 44.2188 44.5625Z" fill="#E2FB5F"></path>
</g>
<defs>
<clipPath id="SvgjsClipPath1000">
<rect width="64" height="64" fill="white"></rect>
</clipPath>
</defs>
</svg><style>@media (prefers-color-scheme: light) { :root { filter: none; } }
</style></svg>