<svg width="28" height="28" viewBox="0 0 28 28" fill="none" xmlns="http://www.w3.org/2000/svg">
<path d="M10.7119 8.83525C10.4369 8.81025 10.1936 9.01292 10.1686 9.28793C10.1436 9.56294 10.3463 9.80614 10.6213 9.83114L10.7119 8.83525ZM18 9.99987L18.4979 9.9546C18.4761 9.71422 18.2856 9.52377 18.0452 9.50192L18 9.99987ZM18.1687 17.3785C18.1937 17.6535 18.4369 17.8562 18.7119 17.8312C18.9869 17.8062 19.1896 17.563 19.1646 17.288L18.1687 17.3785ZM9.64637 17.6464C9.45111 17.8416 9.45111 18.1582 9.64637 18.3535C9.84163 18.5487 10.1582 18.5487 10.3535 18.3535L9.64637 17.6464ZM10.6213 9.83114L17.9547 10.4978L18.0452 9.50192L10.7119 8.83525L10.6213 9.83114ZM17.502 10.0451L18.1687 17.3785L19.1646 17.288L18.4979 9.9546L17.502 10.0451ZM17.6464 9.64631L9.64637 17.6464L10.3535 18.3535L18.3535 10.3534L17.6464 9.64631ZM26.2999 14C26.2999 20.7931 20.7931 26.2999 14 26.2999V27.2999C21.3453 27.2999 27.2999 21.3453 27.2999 14H26.2999ZM14 26.2999C7.20685 26.2999 1.69995 20.7931 1.69995 14H0.699951C0.699951 21.3453 6.65456 27.2999 14 27.2999V26.2999ZM1.69995 14C1.69995 7.20685 7.20685 1.69995 14 1.69995V0.699951C6.65456 0.699951 0.699951 6.65456 0.699951 14H1.69995ZM14 1.69995C20.7931 1.69995 26.2999 7.20685 26.2999 14H27.2999C27.2999 6.65456 21.3453 0.699951 14 0.699951V1.69995Z" fill="#E2FB5F"/>
</svg>
