<?xml version="1.0" encoding="utf-8"?>
<!-- Generator: Adobe Illustrator 26.3.1, SVG Export Plug-In . SVG Version: 6.00 Build 0)  -->
<svg version="1.1" id="Layer_1" xmlns="http://www.w3.org/2000/svg" xmlns:xlink="http://www.w3.org/1999/xlink" x="0px" y="0px"
	 viewBox="0 0 260 163" style="enable-background:new 0 0 260 163;" xml:space="preserve">
<style type="text/css">
	.st0{fill:url(#SVGID_1_);}
	
		.st1{fill:none;stroke:url(#SVGID_00000014597511105990939330000001233172278776318341_);stroke-width:4;stroke-linecap:round;stroke-linejoin:round;}
</style>
<linearGradient id="SVGID_1_" gradientUnits="userSpaceOnUse" x1="138.1074" y1="97.3483" x2="114.4974" y2="193.5452" gradientTransform="matrix(1 0 0 -1 0 163.8898)">
	<stop  offset="0" style="stop-color:#E2FB5F"/>
	<stop  offset="1" style="stop-color:#0FEFD4"/>
</linearGradient>
<path class="st0" d="M9.5,38.3c-1.6,0-3-0.3-4.3-1c-1.2-0.6-2.2-1.5-2.9-2.7c-0.7-1.1-1-2.5-1-4v-4.4c0-1.5,0.3-2.8,1-4
	c0.7-1.1,1.6-2,2.9-2.7s2.6-1,4.2-1h3c1.5,0,2.9,0.3,4,0.9c1.2,0.6,2.1,1.5,2.7,2.6c0.6,1.1,0.9,2.4,0.9,3.8H15
	c0-0.9-0.2-1.5-0.7-2.1c-0.5-0.5-1.1-0.8-1.8-0.8H9.6c-0.9,0-1.6,0.3-2.2,1c-0.5,0.6-0.8,1.5-0.8,2.5v3.7c0,1,0.3,1.9,0.8,2.5
	c0.6,0.6,1.3,1,2.2,1h2.9c0.8,0,1.5-0.3,1.9-0.9c0.5-0.6,0.8-1.4,0.8-2.3h5.1c0,2.3-0.7,4.2-2.2,5.5c-1.4,1.4-3.3,2.1-5.7,2.1H9.5z
	 M30.8,38.3c-1.6,0-3-0.3-4.3-0.9c-1.2-0.6-2.2-1.5-2.9-2.7c-0.7-1.1-1-2.5-1-4v-4.4c0-1.5,0.3-2.8,1-4c0.7-1.2,1.6-2.1,2.9-2.7
	c1.2-0.6,2.7-1,4.3-1h3.4c1.6,0,3,0.3,4.2,1c1.2,0.6,2.2,1.5,2.9,2.7c0.7,1.1,1,2.5,1,4v4.4c0,1.5-0.3,2.8-1,4
	c-0.7,1.1-1.6,2-2.9,2.7c-1.2,0.6-2.6,0.9-4.3,0.9H30.8z M34.1,33.9c0.9,0,1.7-0.3,2.2-1c0.6-0.7,0.8-1.5,0.8-2.5v-3.7
	c0-1-0.3-1.9-0.8-2.5c-0.6-0.7-1.3-1-2.2-1h-3.3c-0.9,0-1.6,0.3-2.2,1c-0.6,0.6-0.8,1.5-0.8,2.5v3.7c0,1,0.3,1.9,0.8,2.5
	c0.6,0.6,1.3,1,2.2,1H34.1z M67.7,18.7c1.9,0,3.5,0.6,4.6,1.9c1.2,1.2,1.7,2.9,1.7,4.9V38h-5.2V25.5c0-0.7-0.2-1.3-0.5-1.7
	c-0.3-0.4-0.8-0.6-1.3-0.6h-1.6c-0.7,0-1.3,0.3-1.9,0.8c-0.5,0.5-0.9,1.2-1,2.1V38h-5.2V25.6c0-0.7-0.2-1.3-0.5-1.7
	c-0.3-0.4-0.8-0.6-1.3-0.6h-1.5c-0.7,0-1.4,0.3-1.9,1c-0.6,0.7-0.9,1.5-1.1,2.6V38H46V19h4.8v2.2c0.5-0.8,1-1.4,1.7-1.8
	c0.7-0.5,1.5-0.7,2.2-0.7h2.1c0.9,0,1.7,0.2,2.5,0.7c0.8,0.5,1.4,1.2,1.8,2c0.6-0.9,1.2-1.5,2-2c0.8-0.5,1.6-0.7,2.5-0.7H67.7z
	 M81.5,17.3c-1,0-1.8-0.3-2.4-0.8c-0.6-0.6-0.9-1.3-0.9-2.3c0-0.9,0.3-1.7,0.9-2.2c0.6-0.6,1.4-0.9,2.4-0.9s1.8,0.3,2.4,0.9
	c0.6,0.6,0.9,1.3,0.9,2.2c0,0.9-0.3,1.7-0.9,2.3C83.3,17,82.5,17.3,81.5,17.3z M78.9,19h5.2v19h-5.2V19z M89.2,19H94v2.3
	c0.6-0.8,1.3-1.4,2.2-1.9c0.9-0.5,1.8-0.7,2.7-0.7h2.3c2,0,3.6,0.6,4.9,1.9c1.2,1.3,1.9,2.9,1.9,5V38h-5.2V25.8
	c0-0.8-0.2-1.4-0.6-1.9c-0.4-0.5-0.9-0.7-1.6-0.7h-2.3c-0.9,0-1.7,0.3-2.4,1c-0.7,0.6-1.1,1.5-1.4,2.5V38h-5.2V19z M119.3,45.7
	c-2,0-3.7-0.6-5.1-1.7c-1.3-1.1-2.1-2.6-2.2-4.5h5.1c0.1,0.6,0.3,1,0.7,1.3c0.4,0.4,0.9,0.5,1.5,0.5h3.4c0.8,0,1.4-0.3,1.9-1
	c0.5-0.6,0.8-1.5,0.8-2.5V36c-0.5,0.6-1.1,1-1.9,1.3c-0.7,0.3-1.4,0.5-2.1,0.5h-2.6c-2.3,0-4.2-0.7-5.6-2.1
	c-1.4-1.4-2.1-3.2-2.1-5.4v-3.9c0-1.5,0.3-2.9,1-4.1c0.7-1.2,1.6-2.1,2.8-2.7c1.2-0.7,2.6-1,4.1-1h2.2c0.9,0,1.7,0.2,2.5,0.6
	c0.8,0.4,1.5,0.9,2,1.6V19h4.8v18.8c0,1.6-0.3,3-1,4.1c-0.6,1.2-1.5,2.1-2.7,2.8c-1.2,0.7-2.6,1-4.1,1H119.3z M121.9,33.5
	c1,0,1.8-0.4,2.4-1.2c0.7-0.8,1-1.9,1.1-3.2v-2.6c-0.1-1-0.4-1.8-1-2.4c-0.6-0.6-1.3-0.9-2.2-0.9h-2.7c-0.9,0-1.7,0.3-2.3,1
	c-0.6,0.7-0.9,1.6-0.9,2.7V30c0,1,0.3,1.9,0.8,2.5s1.2,1,2.1,1H121.9z M152.7,38.3c-2.3,0-4.2-0.6-5.5-1.8c-1.4-1.2-2.1-2.8-2.1-4.8
	h5.1c0,0.7,0.2,1.2,0.7,1.7c0.5,0.4,1.1,0.6,1.9,0.6h3.4c1.5,0,2.3-0.4,2.3-1.3v-0.6c0-0.3-0.1-0.5-0.4-0.7c-0.3-0.2-0.6-0.4-1-0.5
	l-6.6-1.1c-1.5-0.3-2.8-0.8-3.7-1.6c-0.9-0.9-1.3-1.9-1.3-3v-1.3c0-1.6,0.7-2.9,2-3.8c1.3-0.9,3.2-1.4,5.6-1.4h3
	c2.1,0,3.8,0.6,5.1,1.7c1.3,1.1,2,2.6,2,4.4h-5.1c0-0.6-0.2-1-0.6-1.3c-0.4-0.3-0.8-0.5-1.4-0.5H153c-1.6,0-2.5,0.4-2.5,1.1v0.6
	c0,0.3,0.1,0.5,0.3,0.7c0.2,0.2,0.5,0.3,0.9,0.4l6.9,1.3c1.4,0.3,2.6,0.8,3.5,1.6c0.9,0.8,1.3,1.7,1.3,2.8v1.4c0,1.6-0.7,3-2.1,3.9
	c-1.3,1-3.1,1.4-5.4,1.4H152.7z M174.2,38.3c-1.6,0-3-0.3-4.3-0.9c-1.2-0.6-2.2-1.5-2.9-2.7c-0.7-1.1-1-2.5-1-4v-4.4
	c0-1.5,0.3-2.8,1-4c0.7-1.2,1.6-2.1,2.8-2.7c1.2-0.6,2.7-1,4.3-1h3.4c1.6,0,3,0.3,4.2,1c1.2,0.6,2.2,1.5,2.9,2.7c0.7,1.1,1,2.5,1,4
	v4.4c0,1.5-0.3,2.8-1,4c-0.7,1.1-1.6,2-2.9,2.7c-1.2,0.6-2.6,0.9-4.3,0.9H174.2z M177.5,33.9c0.9,0,1.7-0.3,2.2-1
	c0.6-0.7,0.8-1.5,0.8-2.5v-3.7c0-1-0.3-1.9-0.8-2.5c-0.6-0.7-1.3-1-2.2-1h-3.3c-0.9,0-1.6,0.3-2.2,1c-0.6,0.6-0.8,1.5-0.8,2.5v3.7
	c0,1,0.3,1.9,0.8,2.5c0.6,0.6,1.3,1,2.2,1H177.5z M196.7,38.3c-1.6,0-3-0.3-4.3-0.9c-1.2-0.6-2.2-1.5-2.9-2.7c-0.7-1.1-1-2.5-1-4
	v-4.4c0-1.5,0.3-2.8,1-4c0.7-1.2,1.6-2.1,2.9-2.7c1.2-0.6,2.7-1,4.3-1h3.4c1.6,0,3,0.3,4.2,1c1.2,0.6,2.2,1.5,2.9,2.7
	c0.7,1.1,1,2.5,1,4v4.4c0,1.5-0.3,2.8-1,4c-0.7,1.1-1.6,2-2.9,2.7c-1.2,0.6-2.6,0.9-4.3,0.9H196.7z M200.1,33.9c0.9,0,1.7-0.3,2.2-1
	c0.6-0.7,0.8-1.5,0.8-2.5v-3.7c0-1-0.3-1.9-0.8-2.5c-0.6-0.7-1.3-1-2.2-1h-3.3c-0.9,0-1.6,0.3-2.2,1c-0.6,0.6-0.8,1.5-0.8,2.5v3.7
	c0,1,0.3,1.9,0.8,2.5c0.6,0.6,1.3,1,2.2,1H200.1z M211.9,19h4.8v2.3c0.6-0.8,1.3-1.4,2.2-1.9c0.9-0.5,1.8-0.7,2.7-0.7h2.3
	c2,0,3.6,0.6,4.9,1.9c1.2,1.3,1.9,2.9,1.9,5V38h-5.2V25.8c0-0.8-0.2-1.4-0.6-1.9c-0.4-0.5-0.9-0.7-1.6-0.7h-2.3
	c-0.9,0-1.7,0.3-2.4,1c-0.7,0.6-1.1,1.5-1.4,2.5V38h-5.2V19z M237.1,38.4c-0.9,0-1.7-0.3-2.3-0.8c-0.6-0.6-0.8-1.3-0.8-2.3
	s0.3-1.7,0.8-2.2c0.6-0.6,1.3-0.9,2.3-0.9c0.9,0,1.7,0.3,2.2,0.9c0.6,0.6,0.9,1.3,0.9,2.2s-0.3,1.7-0.9,2.3
	C238.8,38.1,238,38.4,237.1,38.4z M246.2,38.4c-0.9,0-1.7-0.3-2.3-0.8c-0.6-0.6-0.8-1.3-0.8-2.3s0.3-1.7,0.8-2.2
	c0.6-0.6,1.3-0.9,2.3-0.9c0.9,0,1.7,0.3,2.2,0.9c0.6,0.6,0.9,1.3,0.9,2.2s-0.3,1.7-0.9,2.3C247.9,38.1,247.2,38.4,246.2,38.4z
	 M255.3,38.4c-0.9,0-1.7-0.3-2.3-0.8c-0.6-0.6-0.8-1.3-0.8-2.3s0.3-1.7,0.8-2.2c0.6-0.6,1.3-0.9,2.3-0.9c0.9,0,1.7,0.3,2.2,0.9
	c0.6,0.6,0.9,1.3,0.9,2.2s-0.3,1.7-0.9,2.3C257,38.1,256.3,38.4,255.3,38.4z"/>
<linearGradient id="SVGID_00000145043903527689074070000005997059545306637442_" gradientUnits="userSpaceOnUse" x1="162.5163" y1="15.8081" x2="88.6558" y2="71.3651" gradientTransform="matrix(1 0 0 -1 0 163.8898)">
	<stop  offset="0" style="stop-color:#E2FB5F"/>
	<stop  offset="1" style="stop-color:#0FEFD4"/>
</linearGradient>
<path style="fill:none;stroke:url(#SVGID_00000145043903527689074070000005997059545306637442_);stroke-width:4;stroke-linecap:round;stroke-linejoin:round;" d="
	M117.1,105.8c-2.6,2.1-4.7,4.8-6.2,7.9c-1.5,3.1-2.2,6.4-2.2,9.8c0,8.3-1.9,16.5-5.5,24 M134.6,160.4c5.4-11.5,8.9-31.7,8.1-36.9
	c-1-6.4-4.1-11.6-11.5-11.6c-8.5,0-11.1,8.7-11.1,12.3 M164.1,145.3c1.4-7.2,2.1-14.5,2.1-21.8c0-9.4-3.7-18.4-10.3-25.1
	c-6.6-6.7-15.5-10.4-24.8-10.4c-9.3,0-18.2,3.7-24.8,10.4c-6.6,6.7-10.3,15.7-10.3,25.1c0,4.7-0.8,9.3-2.3,13.7 M111.8,155.1
	c3.6-6.2,6.1-12.9,7.5-19.9 M152.8,135.9c0.5-4.1,0.8-8.3,0.8-12.4c0-6-2.4-11.8-6.6-16.1c-4.2-4.3-9.9-6.7-15.9-6.7
	c-0.9,0-1.9,0-2.8,0.2 M150.5,148.3c-0.6,2.3-1.3,4.6-2,6.8 M122.7,158.7c4.5-8.1,8.5-21.4,8.5-35.1"/>
</svg>
