<?xml version="1.0" encoding="utf-8"?>
<!-- Generator: Adobe Illustrator 26.3.1, SVG Export Plug-In . SVG Version: 6.00 Build 0)  -->
<svg version="1.1" id="Layer_1" xmlns="http://www.w3.org/2000/svg" xmlns:xlink="http://www.w3.org/1999/xlink" x="0px" y="0px"
	 viewBox="0 0 16 19" style="enable-background:new 0 0 16 19;" xml:space="preserve">
<style type="text/css">
	.st0{fill:#73EDC9;fill-opacity:0.3;}
</style>
<path class="st0" d="M7.2,12.2V7h1.5v5.2H7.2z M8,6.4c-0.2,0-0.4-0.1-0.6-0.2S7.2,5.9,7.2,5.7c0-0.3,0.1-0.5,0.2-0.6
	C7.6,5,7.8,5,8,5C8.2,5,8.4,5,8.6,5.1c0.2,0.1,0.3,0.3,0.3,0.6c0,0.3-0.1,0.5-0.3,0.6C8.4,6.4,8.2,6.4,8,6.4z M8,16.2
	c-1,0-1.9-0.2-2.7-0.5c-0.8-0.4-1.6-0.8-2.2-1.5C2.5,13.6,2,12.8,1.6,12c-0.4-0.8-0.5-1.7-0.5-2.7s0.2-1.9,0.5-2.7
	C2,5.8,2.5,5,3.1,4.4c0.6-0.6,1.4-1.1,2.2-1.5C6.1,2.5,7,2.4,8,2.4s1.9,0.2,2.7,0.5c0.8,0.4,1.6,0.8,2.2,1.5C13.5,5,14,5.8,14.4,6.6
	c0.4,0.8,0.5,1.7,0.5,2.7s-0.2,1.9-0.5,2.7c-0.4,0.8-0.8,1.6-1.5,2.2c-0.6,0.6-1.4,1.1-2.2,1.5C9.9,16,9,16.2,8,16.2z M8,14.8
	c0.8,0,1.5-0.1,2.1-0.4c0.7-0.3,1.2-0.7,1.7-1.2c0.5-0.5,0.9-1.1,1.2-1.8c0.3-0.7,0.4-1.4,0.4-2.1c0-0.8-0.1-1.5-0.4-2.1
	c-0.3-0.7-0.7-1.2-1.2-1.7c-0.5-0.5-1.1-0.9-1.8-1.2C9.5,3.9,8.8,3.8,8,3.8c-0.8,0-1.5,0.1-2.1,0.4C5.2,4.5,4.6,4.9,4.1,5.4
	C3.6,5.9,3.2,6.5,2.9,7.2C2.6,7.8,2.5,8.5,2.5,9.3c0,0.8,0.1,1.5,0.4,2.1c0.3,0.7,0.7,1.2,1.2,1.8c0.5,0.5,1.1,0.9,1.8,1.2
	C6.5,14.7,7.2,14.8,8,14.8z"/>
</svg>
