<svg width="21" height="21" viewBox="0 0 21 21" fill="none" xmlns="http://www.w3.org/2000/svg">
<path d="M9.78351 5.82444C9.60673 5.6123 9.29145 5.58364 9.07931 5.76042C8.86717 5.9372 8.83851 6.25248 9.01529 6.46462L9.78351 5.82444ZM12.935 10.3872L13.3191 10.7073C13.4736 10.5219 13.4736 10.2525 13.3191 10.0671L12.935 10.3872ZM9.01529 14.3098C8.83851 14.5219 8.86717 14.8372 9.07931 15.014C9.29145 15.1908 9.60673 15.1621 9.78351 14.95L9.01529 14.3098ZM9.01529 6.46462L12.5508 10.7073L13.3191 10.0671L9.78351 5.82444L9.01529 6.46462ZM12.5508 10.0671L9.01529 14.3098L9.78351 14.95L13.3191 10.7073L12.5508 10.0671ZM10.6 1.5C15.6258 1.5 19.7 5.57421 19.7 10.6H20.7C20.7 5.02192 16.1781 0.5 10.6 0.5V1.5ZM19.7 10.6C19.7 15.6258 15.6258 19.7 10.6 19.7V20.7C16.1781 20.7 20.7 16.1781 20.7 10.6H19.7ZM10.6 19.7C5.57421 19.7 1.5 15.6258 1.5 10.6H0.5C0.5 16.1781 5.02192 20.7 10.6 20.7V19.7ZM1.5 10.6C1.5 5.57421 5.57421 1.5 10.6 1.5V0.5C5.02192 0.5 0.5 5.02192 0.5 10.6H1.5Z" fill="#E2FB5F"/>
</svg>
