<svg width="18" height="18" viewBox="0 0 18 18" fill="none" xmlns="http://www.w3.org/2000/svg">
<g clip-path="url(#clip0_132_321)">
<path d="M9 18C13.9875 18 18 13.9875 18 9C18 4.01247 13.9875 0 9 0C4.01247 0 0 4.01247 0 9C0 13.9875 4.01247 18 9 18Z" fill="#2775CA"/>
<path d="M11.4749 10.425C11.4749 9.11248 10.6874 8.66248 9.11242 8.47501C7.98742 8.32498 7.76242 8.02501 7.76242 7.49995C7.76242 6.97489 8.13745 6.63748 8.88742 6.63748C9.56242 6.63748 9.93745 6.86248 10.1249 7.42498C10.1625 7.53748 10.275 7.61245 10.3875 7.61245H10.9874C11.1374 7.61245 11.2499 7.49995 11.2499 7.35001V7.31248C11.0999 6.48745 10.4249 5.84998 9.56242 5.77501V4.87501C9.56242 4.72498 9.44992 4.61248 9.26245 4.57495H8.69995C8.54992 4.57495 8.43742 4.68745 8.39989 4.87501V5.73748C7.27489 5.88751 6.56245 6.63748 6.56245 7.57501C6.56245 8.81251 7.31242 9.29995 8.88742 9.48751C9.93745 9.67498 10.275 9.89998 10.275 10.5C10.275 11.1 9.74989 11.5125 9.03745 11.5125C8.06239 11.5125 7.72489 11.1 7.61239 10.5375C7.57495 10.3875 7.46245 10.3125 7.34995 10.3125H6.71239C6.56245 10.3125 6.44995 10.425 6.44995 10.575V10.6125C6.59989 11.55 7.19992 12.225 8.43742 12.4125V13.3125C8.43742 13.4625 8.54992 13.575 8.73739 13.6125H9.29989C9.44992 13.6125 9.56242 13.5 9.59995 13.3125V12.4125C10.725 12.225 11.4749 11.4375 11.4749 10.425Z" fill="white"/>
<path d="M7.0875 14.3624C4.1625 13.3125 2.66247 10.05 3.75003 7.16244C4.31253 5.58744 5.55003 4.38747 7.0875 3.82497C7.23753 3.75 7.3125 3.6375 7.3125 3.44994V2.92497C7.3125 2.77494 7.23753 2.66244 7.0875 2.625C7.04997 2.625 6.975 2.625 6.93747 2.66244C3.375 3.78744 1.42497 7.575 2.54997 11.1375C3.22497 13.2374 4.8375 14.85 6.93747 15.525C7.0875 15.5999 7.23753 15.525 7.27497 15.3749C7.3125 15.3375 7.3125 15.3 7.3125 15.225V14.6999C7.3125 14.5874 7.2 14.4375 7.0875 14.3624ZM11.0625 2.66244C10.9125 2.58747 10.7625 2.66244 10.725 2.81247C10.6875 2.85 10.6875 2.88744 10.6875 2.9625V3.48747C10.6875 3.6375 10.8 3.78744 10.9125 3.8625C13.8375 4.91244 15.3375 8.17494 14.25 11.0625C13.6875 12.6375 12.45 13.8375 10.9125 14.4C10.7625 14.4749 10.6875 14.5874 10.6875 14.775V15.3C10.6875 15.45 10.7625 15.5625 10.9125 15.5999C10.95 15.5999 11.025 15.5999 11.0625 15.5625C14.625 14.4375 16.575 10.6499 15.45 7.08747C14.775 4.94997 13.125 3.33744 11.0625 2.66244Z" fill="white"/>
</g>
<defs>
<clipPath id="clip0_132_321">
<rect width="18" height="18" fill="white"/>
</clipPath>
</defs>
</svg>
