<svg width="14" height="14" viewBox="0 0 14 14" fill="none" xmlns="http://www.w3.org/2000/svg">
<g clip-path="url(#clip0_132_319)">
<path d="M7 14C3.13401 14 9.53674e-07 10.866 9.53674e-07 7C9.53674e-07 3.13401 3.13401 0 7 0C10.866 0 14 3.13401 14 7C14 10.866 10.866 14 7 14Z" fill="#2E3148"/>
<path d="M7.00003 11.0617C4.7568 11.0617 2.9383 9.2432 2.9383 6.99997C2.9383 4.75673 4.7568 2.93823 7.00003 2.93823C9.24327 2.93823 11.0618 4.75673 11.0618 6.99997C11.0618 9.2432 9.24327 11.0617 7.00003 11.0617Z" fill="#1B1E36"/>
<path d="M6.9857 0.893066C7.74131 0.893066 8.354 3.63371 8.354 7.01448C8.354 10.3953 7.74131 13.1359 6.9857 13.1359C6.23009 13.1359 5.6174 10.3953 5.6174 7.01448C5.6174 3.63371 6.23009 0.893066 6.9857 0.893066ZM6.89123 12.7904C6.97764 12.9057 7.06404 12.8192 7.06404 12.8192C7.41203 12.416 7.58602 11.667 7.58602 11.667C8.19468 9.70814 8.04981 5.50237 8.04981 5.50237C7.76376 2.16343 7.24341 1.37467 7.06634 1.19955C7.04826 1.18168 7.02445 1.17076 6.99911 1.16871C6.97377 1.16666 6.94851 1.17362 6.9278 1.18835C6.67087 1.37041 6.45538 2.13179 6.45538 2.13179C5.81905 4.49392 5.87668 6.71203 5.87668 6.71203C5.81905 8.64207 6.19554 10.8025 6.19554 10.8025C6.48534 12.4445 6.89123 12.7904 6.89123 12.7904Z" fill="#6F7390"/>
<path d="M1.67601 3.96815C2.05221 3.3125 4.73411 4.145 7.66801 5.82735C10.6019 7.5097 12.6714 9.40513 12.2955 10.0605C11.9196 10.7159 9.23741 9.88365 6.30351 8.2013C3.36961 6.51895 1.30008 4.62352 1.67601 3.96815ZM11.9484 9.97056C12.0925 9.95242 12.0599 9.83404 12.0599 9.83404C11.8832 9.33166 11.321 8.80795 11.321 8.80795C9.92419 7.30513 6.20378 5.33791 6.20378 5.33791C3.16555 3.92436 2.22184 3.984 1.98244 4.04991C1.95787 4.05677 1.93651 4.0721 1.92216 4.0932C1.90781 4.11429 1.90139 4.13978 1.90404 4.16516C1.93282 4.47876 2.48739 5.04436 2.48739 5.04436C4.21846 6.77246 6.17124 7.82649 6.17124 7.82649C7.81669 8.83729 9.87805 9.5854 9.87805 9.5854C11.4466 10.1506 11.9484 9.97056 11.9484 9.97056H11.9484Z" fill="#6F7390"/>
<path d="M1.68935 10.0823C1.31023 9.42838 3.37456 7.52427 6.29815 5.82926C9.22174 4.13425 11.9033 3.29145 12.2821 3.94649C12.6609 4.60152 10.5969 6.50451 7.67161 8.19952C4.74634 9.89453 2.06814 10.7374 1.68935 10.0823ZM12.0309 4.19916C12.0869 4.06638 11.9687 4.03441 11.9687 4.03441C11.4453 3.93557 10.7101 4.1608 10.7101 4.1608C8.71007 4.61625 5.14371 6.8502 5.14371 6.8502C2.39786 8.77161 1.97674 9.61794 1.91363 9.85818C1.90721 9.88282 1.90971 9.90894 1.92067 9.93192C1.93163 9.9549 1.95036 9.97327 1.97355 9.98379C2.25988 10.1149 3.02674 9.91956 3.02674 9.91956C5.39034 9.28581 7.28061 8.12465 7.28061 8.12465C8.97904 7.2086 10.6585 5.79908 10.6585 5.79908C11.9346 4.72461 12.0305 4.20061 12.0305 4.20061L12.0309 4.19916Z" fill="#6F7390"/>
<path d="M7.00005 7.7201C6.60232 7.7201 6.2799 7.39768 6.2799 6.99995C6.2799 6.60221 6.60232 6.27979 7.00005 6.27979C7.39779 6.27979 7.72021 6.60221 7.72021 6.99995C7.72021 7.39768 7.39779 7.7201 7.00005 7.7201Z" fill="#B7B9C8"/>
<path d="M4.04738 4.66668C3.81669 4.66668 3.62968 4.47323 3.62968 4.23459C3.62968 3.99595 3.81669 3.80249 4.04738 3.80249C4.27808 3.80249 4.46509 3.99595 4.46509 4.23459C4.46509 4.47323 4.27808 4.66668 4.04738 4.66668Z" fill="#B7B9C8"/>
<path d="M10.9033 6.13592C10.6726 6.13592 10.4856 5.94246 10.4856 5.70382C10.4856 5.46518 10.6726 5.27173 10.9033 5.27173C11.134 5.27173 11.321 5.46518 11.321 5.70382C11.321 5.94246 11.134 6.13592 10.9033 6.13592Z" fill="#B7B9C8"/>
<path d="M7.84987 11.4362C7.61918 11.4362 7.43217 11.2428 7.43217 11.0041C7.43217 10.7655 7.61918 10.572 7.84987 10.572C8.08057 10.572 8.26758 10.7655 8.26758 11.0041C8.26758 11.2428 8.08057 11.4362 7.84987 11.4362Z" fill="#B7B9C8"/>
</g>
<defs>
<clipPath id="clip0_132_319">
<rect width="14" height="14" fill="white" transform="matrix(-1 0 0 1 14 0)"/>
</clipPath>
</defs>
</svg>
