<svg width="18" height="18" viewBox="0 0 18 18" fill="none" xmlns="http://www.w3.org/2000/svg">
<path d="M9 18C13.9706 18 18 13.9706 18 9C18 4.02944 13.9706 0 9 0C4.02944 0 0 4.02944 0 9C0 13.9706 4.02944 18 9 18Z" fill="#68DD9A"/>
<path d="M5.82774 4.85156H8.25608V9.87178C8.25608 10.4533 8.28674 11.0267 8.34909 11.5919C8.34909 11.6307 8.35317 11.6695 8.36033 11.7084H9.10437V12.9869H7.23405L7.08279 12.2429H7.0368C6.95912 12.3819 6.85488 12.5066 6.72303 12.6149C6.59119 12.7232 6.44402 12.8183 6.28152 12.9001C6.11901 12.9818 5.94016 13.0431 5.747 13.0861C5.55281 13.129 5.35965 13.1504 5.16546 13.1504C4.80162 13.1504 4.45822 13.0922 4.1373 12.9757C3.81536 12.8592 3.5343 12.6793 3.29514 12.435C3.05497 12.1908 2.86487 11.8811 2.72587 11.505C2.58688 11.1289 2.51636 10.6853 2.51636 10.1743C2.51636 9.67861 2.59199 9.23709 2.74325 8.84975C2.89451 8.4624 3.103 8.13535 3.37077 7.86757C3.63855 7.5998 3.95333 7.3954 4.3182 7.25129C4.68204 7.10821 5.08165 7.03666 5.51499 7.03666C5.75517 7.03666 5.98206 7.04995 6.19464 7.07754C6.40723 7.10514 6.59119 7.14909 6.74654 7.21143V6.1291H5.82876V4.85156H5.82774ZM5.51397 11.8698C5.80832 11.8698 6.06996 11.7983 6.29889 11.6552C6.52783 11.5121 6.67602 11.3047 6.74654 11.0338V8.56971C6.63821 8.48488 6.48899 8.42049 6.29889 8.37757C6.10879 8.33464 5.9095 8.31318 5.69998 8.31318C5.49047 8.31318 5.28708 8.34793 5.08983 8.41743C4.89258 8.48692 4.71781 8.5973 4.56655 8.74856C4.41529 8.89983 4.29571 9.09503 4.2068 9.33521C4.11788 9.57539 4.07291 9.86973 4.07291 10.2182C4.07291 10.7139 4.19658 11.1125 4.44493 11.415C4.69226 11.7196 5.04895 11.8698 5.51397 11.8698Z" fill="black"/>
<path d="M11.5214 9.59276H10.6966V12.9859H9.10425V4.85156H10.6966V8.17521H11.5214L13.3804 4.85156H15.1935L12.9042 8.77923L15.4838 12.9859H13.5194L11.5214 9.59276Z" fill="black"/>
</svg>
