<svg width="20" height="20" viewBox="0 0 21 21" fill="none" xmlns="http://www.w3.org/2000/svg">
<path d="M9.98371 5.82444C9.80693 5.6123 9.49164 5.58364 9.2795 5.76042C9.06737 5.9372 9.0387 6.25248 9.21549 6.46462L9.98371 5.82444ZM13.1352 10.3872L13.5193 10.7073C13.6738 10.5219 13.6738 10.2525 13.5193 10.0671L13.1352 10.3872ZM9.21549 14.3098C9.0387 14.5219 9.06737 14.8372 9.2795 15.014C9.49164 15.1908 9.80692 15.1621 9.98371 14.95L9.21549 14.3098ZM9.21549 6.46462L12.751 10.7073L13.5193 10.0671L9.98371 5.82444L9.21549 6.46462ZM12.751 10.0671L9.21549 14.3098L9.98371 14.95L13.5193 10.7073L12.751 10.0671ZM10.8002 1.5C15.826 1.5 19.9002 5.57421 19.9002 10.6H20.9002C20.9002 5.02192 16.3783 0.5 10.8002 0.5V1.5ZM19.9002 10.6C19.9002 15.6258 15.826 19.7 10.8002 19.7V20.7C16.3783 20.7 20.9002 16.1781 20.9002 10.6H19.9002ZM10.8002 19.7C5.7744 19.7 1.7002 15.6258 1.7002 10.6H0.700195C0.700196 16.1781 5.22212 20.7 10.8002 20.7V19.7ZM1.7002 10.6C1.7002 5.57421 5.7744 1.5 10.8002 1.5V0.5C5.22212 0.5 0.700195 5.02192 0.700195 10.6H1.7002Z" fill="#F6F8FE" fill-opacity="0.4"/>
</svg>
