<svg width="18" height="18" viewBox="0 0 18 18" fill="none" xmlns="http://www.w3.org/2000/svg">
<circle cx="9" cy="9" r="9" fill="#E2FB5F"/>
<path d="M8.5668 6.11963H10.2309V12.231C10.2309 12.813 10.0981 13.3071 9.83243 13.7134C9.57071 14.1196 9.20547 14.4282 8.73672 14.6392C8.26797 14.8501 7.71914 14.9556 7.09024 14.9556C6.8168 14.9556 6.53164 14.9185 6.23477 14.8442C5.93789 14.7739 5.6586 14.6665 5.39688 14.522C5.13516 14.3813 4.91641 14.2017 4.74063 13.9829L5.51993 12.9048C5.69961 13.1079 5.91446 13.272 6.16446 13.397C6.41446 13.5259 6.69961 13.5903 7.01993 13.5903C7.31289 13.5903 7.56094 13.5376 7.76407 13.4321C7.96719 13.3267 8.12149 13.1724 8.22696 12.9692C8.33633 12.7661 8.39102 12.52 8.39102 12.231V7.60205L8.5668 6.11963ZM4.33047 9.36572V9.24268C4.33047 8.76221 4.38907 8.32471 4.50625 7.93018C4.62344 7.53174 4.79336 7.18994 5.01602 6.90479C5.24258 6.61572 5.51407 6.39307 5.83047 6.23682C6.15079 6.08057 6.51016 6.00244 6.9086 6.00244C7.33829 6.00244 7.69375 6.08447 7.975 6.24854C8.25625 6.40869 8.48477 6.63525 8.66055 6.92822C8.83633 7.21729 8.975 7.55908 9.07657 7.95361C9.17813 8.34424 9.26016 8.76807 9.32266 9.2251V9.43604C9.26016 9.87354 9.17032 10.2817 9.05313 10.6606C8.93594 11.0396 8.7836 11.3735 8.5961 11.6626C8.4086 11.9478 8.17422 12.1724 7.89297 12.3364C7.61563 12.4966 7.2836 12.5767 6.89688 12.5767C6.50235 12.5767 6.14688 12.4966 5.83047 12.3364C5.51407 12.1763 5.24258 11.9517 5.01602 11.6626C4.79336 11.3735 4.62344 11.0337 4.50625 10.6431C4.38907 10.2524 4.33047 9.82666 4.33047 9.36572ZM6.1586 9.24268V9.36572C6.1586 9.61572 6.18204 9.84814 6.22891 10.063C6.27969 10.2778 6.35391 10.4673 6.45157 10.6313C6.55313 10.7954 6.67813 10.9243 6.82657 11.0181C6.97891 11.1079 7.15664 11.1528 7.35977 11.1528C7.65664 11.1528 7.89688 11.0903 8.08047 10.9653C8.26797 10.8364 8.40469 10.6587 8.49063 10.4321C8.58047 10.2056 8.62735 9.94189 8.63125 9.64111V9.02588C8.63125 8.77588 8.60586 8.55127 8.55508 8.35205C8.5043 8.15283 8.42813 7.98486 8.32657 7.84814C8.22891 7.71143 8.1 7.60791 7.93985 7.5376C7.7836 7.46338 7.59414 7.42627 7.37149 7.42627C7.17227 7.42627 6.99649 7.47314 6.84414 7.56689C6.6918 7.65674 6.56485 7.78369 6.46329 7.94775C6.36172 8.11182 6.28555 8.30518 6.23477 8.52783C6.18399 8.74658 6.1586 8.98486 6.1586 9.24268ZM13.5063 3.92822L13.2836 9.80518H11.7777L11.5551 3.92822H13.5063ZM11.5023 11.6274C11.5023 11.3657 11.5961 11.145 11.7836 10.9653C11.9711 10.7856 12.2191 10.6958 12.5277 10.6958C12.8324 10.6958 13.0766 10.7856 13.2602 10.9653C13.4477 11.145 13.5414 11.3657 13.5414 11.6274C13.5414 11.8931 13.4477 12.1157 13.2602 12.2954C13.0766 12.4712 12.8324 12.5591 12.5277 12.5591C12.2191 12.5591 11.9711 12.4712 11.7836 12.2954C11.5961 12.1157 11.5023 11.8931 11.5023 11.6274Z" fill="#162833"/>
</svg>
