<svg width="81" height="77" viewBox="0 0 81 77" fill="none" xmlns="http://www.w3.org/2000/svg">
<path d="M14.9 74.3622L51.45 39.9622L68.65 57.1622M14.9 74.3622H57.9C65.0245 74.3622 70.8 68.5867 70.8 61.4622V39.9622M14.9 74.3622C7.77553 74.3622 2 68.5867 2 61.4622V18.4622C2 11.3378 7.77553 5.56224 14.9 5.56224H42.85M66.5 26.3245L66.5 14.1622M66.5 14.1622L66.5 2M66.5 14.1622L54.3378 14.1622M66.5 14.1622L78.6622 14.1622M27.8 24.9122C27.8 28.4745 24.9122 31.3622 21.35 31.3622C17.7878 31.3622 14.9 28.4745 14.9 24.9122C14.9 21.35 17.7878 18.4622 21.35 18.4622C24.9122 18.4622 27.8 21.35 27.8 24.9122Z" stroke="#162833" stroke-width="4" stroke-linecap="round" stroke-linejoin="round"/>
</svg>
