<svg width="32" height="32" viewBox="0 0 32 32" fill="none" xmlns="http://www.w3.org/2000/svg">
<path d="M12.7119 10.8352C12.4369 10.8102 12.1937 11.0129 12.1687 11.2879C12.1437 11.5629 12.3464 11.8061 12.6214 11.8311L12.7119 10.8352ZM20 11.9999L20.498 11.9546C20.4761 11.7142 20.2857 11.5238 20.0453 11.5019L20 11.9999ZM20.1687 19.3785C20.1937 19.6535 20.437 19.8562 20.712 19.8312C20.987 19.8062 21.1896 19.563 21.1646 19.288L20.1687 19.3785ZM11.6464 19.6464C11.4512 19.8416 11.4512 20.1582 11.6464 20.3535C11.8417 20.5487 12.1583 20.5487 12.3535 20.3535L11.6464 19.6464ZM12.6214 11.8311L19.9548 12.4978L20.0453 11.5019L12.7119 10.8352L12.6214 11.8311ZM19.5021 12.0451L20.1687 19.3785L21.1646 19.288L20.498 11.9546L19.5021 12.0451ZM19.6465 11.6463L11.6464 19.6464L12.3535 20.3535L20.3536 12.3534L19.6465 11.6463ZM28.3 16C28.3 22.7931 22.7931 28.2999 16 28.2999V29.2999C23.3454 29.2999 29.3 23.3453 29.3 16H28.3ZM16 28.2999C9.20689 28.2999 3.7 22.7931 3.7 16H2.7C2.7 23.3453 8.65461 29.2999 16 29.2999V28.2999ZM3.7 16C3.7 9.20685 9.20689 3.69995 16 3.69995V2.69995C8.65461 2.69995 2.7 8.65456 2.7 16H3.7ZM16 3.69995C22.7931 3.69995 28.3 9.20685 28.3 16H29.3C29.3 8.65456 23.3454 2.69995 16 2.69995V3.69995Z" fill="#43B25B"/>
</svg>
