<svg width="77" height="77" viewBox="0 0 77 77" fill="none" xmlns="http://www.w3.org/2000/svg">
<path d="M25.3096 19.7563C22.6831 21.8833 20.563 24.5823 19.1067 27.653C17.6503 30.7237 16.8951 34.0873 16.8971 37.4942C16.9076 45.8027 15.0221 54.0013 11.388 61.4491M42.732 74.36C48.101 62.8338 51.6323 42.7011 50.8399 37.4942C49.8598 31.0541 46.7739 25.9079 39.3313 25.9079C30.8032 25.9079 28.2046 34.573 28.2046 38.2544M72.2668 59.3061C73.6552 52.1206 74.3562 44.8161 74.36 37.4942C74.36 28.0806 70.6693 19.0524 64.0999 12.396C57.5305 5.73954 48.6205 2 39.33 2C30.0394 2 21.1294 5.73954 14.56 12.396C7.99059 19.0524 4.29994 28.0804 4.29994 37.494C4.30362 42.1623 3.52595 46.7978 2 51.2026M19.9763 69.1295C23.527 62.9559 26.0518 56.2328 27.4495 49.2291M61.0114 49.9116C61.5198 45.7936 61.7711 41.6434 61.7628 37.4932C61.7628 31.4651 59.3992 25.684 55.1924 21.4215C50.9857 17.1591 45.2804 14.764 39.3313 14.764C38.3942 14.7575 37.4577 14.8118 36.5275 14.9265M58.6795 62.3243C58.0869 64.6061 57.4143 66.8906 56.704 69.1295M30.85 72.6726C35.3179 64.6019 39.3483 51.2288 39.3483 37.6176" stroke="#162833" stroke-width="4" stroke-linecap="round" stroke-linejoin="round"/>
</svg>
