<svg width="21" height="21" viewBox="0 0 21 21" fill="none" xmlns="http://www.w3.org/2000/svg">
<path d="M15.1627 11.6913C15.3749 11.5145 15.4035 11.1992 15.2268 10.9871C15.05 10.7749 14.7347 10.7463 14.5225 10.923L15.1627 11.6913ZM10.6 14.8427L10.2799 15.2268C10.4653 15.3813 10.7346 15.3813 10.9201 15.2268L10.6 14.8427ZM6.67739 10.923C6.46525 10.7462 6.14997 10.7749 5.97319 10.987C5.79641 11.1992 5.82507 11.5145 6.03721 11.6913L6.67739 10.923ZM11.1 6.35736C11.1 6.08122 10.8761 5.85736 10.6 5.85736C10.3238 5.85736 10.1 6.08122 10.1 6.35736H11.1ZM14.5225 10.923L10.2799 14.4586L10.9201 15.2268L15.1627 11.6913L14.5225 10.923ZM10.9201 14.4586L6.67739 10.923L6.03721 11.6913L10.2799 15.2268L10.9201 14.4586ZM11.1 14.8427V6.35736H10.1V14.8427L11.1 14.8427ZM17.0347 17.0347C13.4809 20.5884 7.7191 20.5884 4.16533 17.0347L3.45822 17.7418C7.40252 21.6861 13.7975 21.6861 17.7418 17.7418L17.0347 17.0347ZM4.16533 17.0347C0.611557 13.4809 0.611557 7.7191 4.16533 4.16533L3.45822 3.45822C-0.486074 7.40252 -0.486074 13.7975 3.45822 17.7418L4.16533 17.0347ZM4.16533 4.16533C7.7191 0.611557 13.4809 0.611557 17.0347 4.16533L17.7418 3.45822C13.7975 -0.486074 7.40252 -0.486074 3.45822 3.45822L4.16533 4.16533ZM17.0347 4.16533C20.5884 7.7191 20.5884 13.4809 17.0347 17.0347L17.7418 17.7418C21.6861 13.7975 21.6861 7.40252 17.7418 3.45822L17.0347 4.16533Z" fill="#E2FB5F"/>
</svg>
