<svg width="14" height="15" viewBox="0 0 14 15" fill="none" xmlns="http://www.w3.org/2000/svg">
<path d="M6.232 10.232V5H7.768V10.232H6.232ZM7.016 4.424C6.77067 4.424 6.568 4.36533 6.408 4.248C6.248 4.13067 6.168 3.944 6.168 3.688C6.168 3.4 6.248 3.208 6.408 3.112C6.568 3.00533 6.77067 2.952 7.016 2.952C7.22933 2.952 7.416 3.00533 7.576 3.112C7.74667 3.208 7.832 3.4 7.832 3.688C7.832 3.95467 7.74667 4.14667 7.576 4.264C7.416 4.37067 7.22933 4.424 7.016 4.424ZM7 14.216C6.04 14.216 5.13867 14.0347 4.296 13.672C3.464 13.32 2.728 12.8293 2.088 12.2C1.45867 11.56 0.962667 10.824 0.6 9.992C0.248 9.14933 0.072 8.248 0.072 7.288C0.072 6.328 0.248 5.432 0.6 4.6C0.962667 3.75733 1.45867 3.02133 2.088 2.392C2.728 1.752 3.464 1.256 4.296 0.903999C5.13867 0.541333 6.04 0.36 7 0.36C7.96 0.36 8.856 0.541333 9.688 0.903999C10.5307 1.256 11.2667 1.752 11.896 2.392C12.536 3.02133 13.032 3.75733 13.384 4.6C13.7467 5.432 13.928 6.328 13.928 7.288C13.928 8.248 13.7467 9.14933 13.384 9.992C13.032 10.824 12.536 11.56 11.896 12.2C11.2667 12.8293 10.5307 13.32 9.688 13.672C8.856 14.0347 7.96 14.216 7 14.216ZM7 12.792C7.768 12.792 8.48267 12.6533 9.144 12.376C9.80533 12.088 10.3867 11.6933 10.888 11.192C11.4 10.68 11.7947 10.0933 12.072 9.432C12.36 8.76 12.504 8.04533 12.504 7.288C12.504 6.52 12.36 5.80533 12.072 5.144C11.7947 4.48267 11.4 3.90133 10.888 3.4C10.3867 2.888 9.8 2.49333 9.128 2.216C8.46667 1.928 7.75733 1.784 7 1.784C6.232 1.784 5.51733 1.928 4.856 2.216C4.19467 2.49333 3.608 2.888 3.096 3.4C2.59467 3.90133 2.2 4.488 1.912 5.16C1.63467 5.82133 1.496 6.53067 1.496 7.288C1.496 8.056 1.63467 8.77067 1.912 9.432C2.2 10.0933 2.59467 10.68 3.096 11.192C3.608 11.6933 4.19467 12.088 4.856 12.376C5.528 12.6533 6.24267 12.792 7 12.792Z" fill="#73EDC9" fill-opacity="0.1"/>
</svg>
