<svg width="21" height="21" viewBox="0 0 21 21" fill="none" xmlns="http://www.w3.org/2000/svg">
<path d="M11.3509 14.949C11.5276 15.1611 11.8429 15.1898 12.0551 15.013C12.2672 14.8362 12.2959 14.521 12.1191 14.3088L11.3509 14.949ZM8.19941 10.3862L7.8153 10.0661C7.66078 10.2516 7.66078 10.5209 7.8153 10.7063L8.19941 10.3862ZM12.1191 6.46366C12.2959 6.25152 12.2672 5.93624 12.0551 5.75945C11.8429 5.58267 11.5276 5.61133 11.3509 5.82347L12.1191 6.46366ZM12.1191 14.3088L8.58352 10.0661L7.8153 10.7063L11.3509 14.949L12.1191 14.3088ZM8.58352 10.7063L12.1191 6.46366L11.3509 5.82347L7.8153 10.0661L8.58352 10.7063ZM10.6 1.5C15.6258 1.5 19.7 5.57421 19.7 10.6H20.7C20.7 5.02192 16.1781 0.5 10.6 0.5V1.5ZM19.7 10.6C19.7 15.6258 15.6258 19.7 10.6 19.7V20.7C16.1781 20.7 20.7 16.1781 20.7 10.6H19.7ZM10.6 19.7C5.57421 19.7 1.5 15.6258 1.5 10.6H0.5C0.5 16.1781 5.02192 20.7 10.6 20.7V19.7ZM1.5 10.6C1.5 5.57421 5.57421 1.5 10.6 1.5V0.5C5.02192 0.5 0.5 5.02192 0.5 10.6H1.5Z" fill="#43B25B" fill-opacity="0.5"/>
</svg>
