<svg width="82" height="77" viewBox="0 0 82 77" fill="none" xmlns="http://www.w3.org/2000/svg">
<path d="M15.5689 74.3622L52.119 39.9622L69.319 57.1622M15.5689 74.3622H58.569C65.6934 74.3622 71.469 68.5867 71.469 61.4622V39.9622M15.5689 74.3622C8.44447 74.3622 2.66895 68.5867 2.66895 61.4622V18.4622C2.66895 11.3378 8.44447 5.56224 15.5689 5.56224H43.519M67.169 26.3245L67.169 14.1622M67.169 14.1622L67.169 2M67.169 14.1622L55.0067 14.1622M67.169 14.1622L79.3312 14.1622M28.4689 24.9122C28.4689 28.4745 25.5812 31.3622 22.0189 31.3622C18.4567 31.3622 15.5689 28.4745 15.5689 24.9122C15.5689 21.35 18.4567 18.4622 22.0189 18.4622C25.5812 18.4622 28.4689 21.35 28.4689 24.9122Z" stroke="url(#paint0_linear_1652_16328)" stroke-width="4" stroke-linecap="round" stroke-linejoin="round"/>
<defs>
<linearGradient id="paint0_linear_1652_16328" x1="54.9241" y1="87.8415" x2="-20.0146" y2="28.1247" gradientUnits="userSpaceOnUse">
<stop stop-color="#E2FB5F"/>
<stop offset="1" stop-color="#0FEFD4"/>
</linearGradient>
</defs>
</svg>
