<svg width="78" height="77" viewBox="0 0 78 77" fill="none" xmlns="http://www.w3.org/2000/svg">
<path d="M26.1294 19.7563C23.5029 21.8833 21.3828 24.5823 19.9265 27.653C18.4702 30.7237 17.715 34.0873 17.7169 37.4942C17.7274 45.8027 15.8419 54.0013 12.2078 61.4491M43.5519 74.36C48.9208 62.8338 52.4522 42.7011 51.6597 37.4942C50.6796 31.0541 47.5937 25.9079 40.1511 25.9079C31.6231 25.9079 29.0244 34.573 29.0244 38.2544M73.0866 59.3061C74.475 52.1206 75.176 44.8161 75.1798 37.4942C75.1798 28.0806 71.4892 19.0524 64.9198 12.396C58.3504 5.73954 49.4403 2 40.1498 2C30.8593 2 21.9492 5.73954 15.3798 12.396C8.81041 19.0524 5.11976 28.0804 5.11976 37.494C5.12344 42.1623 4.34577 46.7978 2.81982 51.2026M20.7961 69.1295C24.3468 62.9559 26.8716 56.2328 28.2694 49.2291M61.8312 49.9116C62.3397 45.7936 62.5909 41.6434 62.5826 37.4932C62.5826 31.4651 60.219 25.684 56.0122 21.4215C51.8055 17.1591 46.1002 14.764 40.1511 14.764C39.214 14.7575 38.2775 14.8118 37.3473 14.9265M59.4993 62.3243C58.9067 64.6061 58.2341 66.8906 57.5238 69.1295M31.6699 72.6726C36.1378 64.6019 40.1682 51.2288 40.1682 37.6176" stroke="url(#paint0_linear_1652_16436)" stroke-width="4" stroke-linecap="round" stroke-linejoin="round"/>
<defs>
<linearGradient id="paint0_linear_1652_16436" x1="52.1425" y1="87.8388" x2="-21.7185" y2="32.2822" gradientUnits="userSpaceOnUse">
<stop stop-color="#E2FB5F"/>
<stop offset="1" stop-color="#0FEFD4"/>
</linearGradient>
</defs>
</svg>
