<?xml version="1.0" encoding="utf-8"?>
<!-- Generator: Adobe Illustrator 26.3.1, SVG Export Plug-In . SVG Version: 6.00 Build 0)  -->
<svg version="1.1" id="Layer_1" xmlns="http://www.w3.org/2000/svg" xmlns:xlink="http://www.w3.org/1999/xlink" x="0px" y="0px"
	 viewBox="0 0 971 441" style="enable-background:new 0 0 971 441;" xml:space="preserve">
<style type="text/css">
	.st0{fill:url(#SVGID_1_);}
	.st1{opacity:0.5;fill:#E2FB5F;enable-background:new    ;}
	.st2{font-family:'BaiJamjuree-Bold';}
	.st3{font-size:20px;}
	.st4{opacity:0.5;fill:none;stroke:#E2FB5F;stroke-width:2;stroke-linecap:round;stroke-linejoin:round;enable-background:new    ;}
	.st5{font-size:18px;}
	.st6{opacity:0.4;fill:#73EDC9;enable-background:new    ;}
	.st7{font-family:'BaiJamjuree-Light';}
	.st8{fill:#E2FB5F;}
	.st9{fill:none;stroke:#101D28;stroke-width:2;stroke-linecap:round;stroke-linejoin:round;}
	.st10{fill:none;stroke:#E2FB5F;stroke-width:2;stroke-linecap:round;stroke-linejoin:round;}
	.st11{font-family:'BaiJamjuree-Regular';}
	.st12{opacity:0.4;fill:none;stroke:#73EDC9;stroke-linecap:round;stroke-linejoin:round;enable-background:new    ;}
	.st13{font-family:'BaiJamjuree-SemiBold';}
	.st14{font-size:16px;}
	.st15{fill:url(#SVGID_00000090986805615469034400000015901934166406630304_);}
	.st16{fill:url(#SVGID_00000004519246917625928810000007609427561276377265_);}
</style>
<linearGradient id="SVGID_1_" gradientUnits="userSpaceOnUse" x1="204.1788" y1="705.3602" x2="37.7139" y2="622.3919" gradientTransform="matrix(1 0 0 1 0 -638)">
	<stop  offset="0" style="stop-color:#E2FB5F"/>
	<stop  offset="1" style="stop-color:#0FEFD4"/>
</linearGradient>
<path class="st0" d="M15.29,13.05c-1.42,0.74-2.51,1.69-3.27,2.85v-3.84H4.46V42h8.16V25.86c0-2,0.66-3.64,1.98-4.92
	s3.04-1.92,5.16-1.92h4.08v-7.08h-4.08C18.2,11.94,16.71,12.31,15.29,13.05z M50.21,13.08c-1.94-1-4.17-1.5-6.69-1.5h-5.4
	c-2.52,0-4.75,0.5-6.69,1.5s-3.45,2.41-4.53,4.23s-1.62,3.91-1.62,6.27v7.02c0,2.36,0.53,4.44,1.59,6.24s2.56,3.19,4.5,4.17
	c1.94,0.98,4.17,1.47,6.69,1.47h5.4c2.56,0,4.81-0.49,6.75-1.47s3.45-2.37,4.53-4.17c1.08-1.8,1.62-3.88,1.62-6.24v-7.02
	c0-2.36-0.54-4.45-1.62-6.27C53.67,15.49,52.15,14.08,50.21,13.08z M48.21,29.94c0,1.64-0.44,2.97-1.32,3.99s-2.06,1.53-3.54,1.53
	h-5.16c-1.4,0-2.54-0.51-3.42-1.53s-1.32-2.35-1.32-3.99v-5.82c0-1.64,0.44-2.97,1.32-3.99s2.04-1.53,3.48-1.53h5.16
	c1.44,0,2.6,0.51,3.48,1.53s1.32,2.35,1.32,3.99C48.21,24.12,48.21,29.94,48.21,29.94z M87.32,14.37c-2.16-1.86-5-2.79-8.52-2.79
	h-5.16c-3.48,0-6.29,0.89-8.43,2.67S62,18.38,62,21.3h7.92c0-0.88,0.34-1.58,1.02-2.1s1.58-0.78,2.7-0.78h5.16
	c1.08,0,1.95,0.31,2.61,0.93s0.99,1.43,0.99,2.43v3.12c-1-0.48-2.1-0.86-3.3-1.14c-1.2-0.28-2.32-0.42-3.36-0.42h-3.66
	c-3.28,0-5.92,0.77-7.92,2.31c-2,1.54-3,3.57-3,6.09v2.22c0,2.56,0.96,4.62,2.88,6.18s4.44,2.34,7.56,2.34h3.72
	c1.36,0,2.74-0.37,4.14-1.11s2.58-1.73,3.54-2.97V42h7.56V21.78C90.56,18.7,89.48,16.23,87.32,14.37z M82.4,32.04
	c-0.52,1.28-1.36,2.3-2.52,3.06c-1.16,0.76-2.48,1.14-3.96,1.14h-3.24c-1.08,0-1.95-0.24-2.61-0.72s-0.99-1.1-0.99-1.86V32.1
	c0-0.8,0.3-1.44,0.9-1.92s1.38-0.72,2.34-0.72h3.78c1.28,0,2.49,0.14,3.63,0.42s2.03,0.66,2.67,1.14V32.04z M118.28,14.34
	c-0.8-0.84-1.8-1.51-3-2.01s-2.38-0.75-3.54-0.75h-3.3c-2.48,0-4.66,0.51-6.54,1.53c-1.88,1.02-3.34,2.46-4.38,4.32
	s-1.56,4.01-1.56,6.45v6.84c0,3.52,1.09,6.36,3.27,8.52s5.05,3.24,8.61,3.24h3.54c1.48,0,2.9-0.41,4.26-1.23s2.44-1.89,3.24-3.21V42
	h7.56V0h-8.16V14.34z M118.28,28.98c-0.16,1.96-0.79,3.53-1.89,4.71s-2.47,1.77-4.11,1.77h-3.42c-1.4,0-2.54-0.49-3.42-1.47
	s-1.32-2.27-1.32-3.87v-5.64c0-1.76,0.49-3.18,1.47-4.26s2.27-1.62,3.87-1.62h3.66c1.28,0,2.39,0.47,3.33,1.41s1.55,2.19,1.83,3.75
	L118.28,28.98L118.28,28.98z M167.6,11.58h-3.3c-1.36,0-2.65,0.38-3.87,1.14s-2.27,1.82-3.15,3.18c-0.68-1.36-1.61-2.42-2.79-3.18
	s-2.49-1.14-3.93-1.14h-3.36c-1.16,0-2.31,0.36-3.45,1.08s-2.07,1.68-2.79,2.88v-3.48h-7.56V42h8.16V24.3
	c0.24-1.68,0.8-3.04,1.68-4.08c0.88-1.04,1.9-1.56,3.06-1.56h2.34c0.84,0,1.52,0.34,2.04,1.02c0.52,0.68,0.78,1.58,0.78,2.7V42h8.16
	V23.16c0.2-1.36,0.72-2.45,1.56-3.27s1.82-1.23,2.94-1.23h2.58c0.84,0,1.52,0.33,2.04,0.99c0.52,0.66,0.78,1.55,0.78,2.67V42h8.16
	V22.32c0-3.2-0.92-5.79-2.76-7.77C173.08,12.57,170.64,11.58,167.6,11.58z M209.48,14.37c-2.16-1.86-5-2.79-8.52-2.79h-5.16
	c-3.48,0-6.29,0.89-8.43,2.67s-3.21,4.13-3.21,7.05h7.92c0-0.88,0.34-1.58,1.02-2.1c0.68-0.52,1.58-0.78,2.7-0.78h5.16
	c1.08,0,1.95,0.31,2.61,0.93s0.99,1.43,0.99,2.43v3.12c-1-0.48-2.1-0.86-3.3-1.14c-1.2-0.28-2.32-0.42-3.36-0.42h-3.66
	c-3.28,0-5.92,0.77-7.92,2.31c-2,1.54-3,3.57-3,6.09v2.22c0,2.56,0.96,4.62,2.88,6.18s4.44,2.34,7.56,2.34h3.72
	c1.36,0,2.74-0.37,4.14-1.11s2.58-1.73,3.54-2.97V42h7.56V21.78C212.72,18.7,211.64,16.23,209.48,14.37z M204.56,32.04
	c-0.52,1.28-1.36,2.3-2.52,3.06c-1.16,0.76-2.48,1.14-3.96,1.14h-3.24c-1.08,0-1.95-0.24-2.61-0.72s-0.99-1.1-0.99-1.86V32.1
	c0-0.8,0.3-1.44,0.9-1.92c0.6-0.48,1.38-0.72,2.34-0.72h3.78c1.28,0,2.49,0.14,3.63,0.42s2.03,0.66,2.67,1.14L204.56,32.04
	L204.56,32.04z M248.3,17.16c-1-1.76-2.42-3.13-4.26-4.11s-3.96-1.47-6.36-1.47h-3.78c-1.24,0-2.51,0.34-3.81,1.02
	c-1.3,0.68-2.37,1.58-3.21,2.7v-3.24h-7.56V54h8.16V39.6c0.84,0.88,1.85,1.58,3.03,2.1c1.18,0.52,2.33,0.78,3.45,0.78h3.9
	c2.36,0,4.44-0.52,6.24-1.56s3.2-2.51,4.2-4.41s1.5-4.09,1.5-6.57v-6.72C249.8,20.94,249.3,18.92,248.3,17.16z M241.64,29.34
	c0,1.84-0.44,3.32-1.32,4.44s-2.06,1.68-3.54,1.68h-3.72c-1.48,0-2.73-0.54-3.75-1.62s-1.63-2.5-1.83-4.26v-5.94
	c0.48-1.48,1.24-2.69,2.28-3.63s2.14-1.41,3.3-1.41h3.66c1.48,0,2.67,0.48,3.57,1.44c0.9,0.96,1.35,2.22,1.35,3.78L241.64,29.34
	L241.64,29.34z"/>
<text transform="matrix(1 0 0 1 292 163)" class="st1 st2 st3">SWAP CV20</text>
<path class="st4" d="M426,153.5l-4.48,4l-1.52-1.36 M431,150.5v10c0,1.66-1.34,3-3,3h-10c-1.66,0-3-1.34-3-3v-10c0-1.66,1.34-3,3-3
	h10C429.66,147.5,431,148.84,431,150.5z"/>
<text transform="matrix(1 0 0 1 457 162.25)" class="st1 st2 st5">liquidity pools</text>
<path class="st4" d="M601,153.5l-4.47,4l-1.53-1.36 M606,150.5v10c0,1.66-1.34,3-3,3h-10c-1.66,0-3-1.34-3-3v-10c0-1.66,1.34-3,3-3
	h10C604.66,147.5,606,148.84,606,150.5z"/>
<text transform="matrix(1 0 0 1 477 69.25)" class="st6 st7 st5">icons storage</text>
<text transform="matrix(1 0 0 1 613 69.25)" class="st6 st7 st5">terms storage</text>
<text transform="matrix(1 0 0 1 292 71)" class="st8 st2 st3">CREATE CV20</text>
<path class="st8" d="M433.4,69.5v-12c0-1.99,1.61-3.6,3.6-3.6h12c1.99,0,3.6,1.61,3.6,3.6v12c0,1.99-1.61,3.6-3.6,3.6h-12
	C435.01,73.1,433.4,71.49,433.4,69.5z"/>
<path class="st9" d="M446.6,61.1l-5.37,4.8l-1.83-1.64"/>
<path class="st10" d="M462.6,59.2l4.8,4.8l-4.8,4.8"/>
<text transform="matrix(1 0 0 1 292 117)" class="st8 st2 st3">MANAGE CV20</text>
<path class="st8" d="M441.4,115.5v-12c0-1.99,1.61-3.6,3.6-3.6h12c1.99,0,3.6,1.61,3.6,3.6v12c0,1.99-1.61,3.6-3.6,3.6h-12
	C443.01,119.1,441.4,117.49,441.4,115.5z"/>
<path class="st9" d="M454.6,107.1l-5.37,4.8l-1.83-1.64"/>
<text transform="matrix(1 0 0 1 580 114.25)" class="st6 st7 st5">mint</text>
<text transform="matrix(1 0 0 1 643 114.25)" class="st6 st7 st5">burn</text>
<text transform="matrix(1 0 0 1 292 209)" class="st6 st11 st3">CREATE NTT</text>
<text transform="matrix(1 0 0 1 292 255)" class="st6 st11 st3">CREATE CV721 (NFT)</text>
<text transform="matrix(1 0 0 1 292 301)" class="st6 st11 st3">NFT MARKETPLACE</text>
<text transform="matrix(1 0 0 1 292 347)" class="st6 st11 st3">NAME SERVIS</text>
<text transform="matrix(1 0 0 1 292 393)" class="st6 st11 st3">DEFI TOOLS</text>
<text transform="matrix(1 0 0 1 431 207.25)" class="st6 st7 st5">non-transferable standart</text>
<text transform="matrix(1 0 0 1 507 253.25)" class="st6 st7 st5">images data storage</text>
<text transform="matrix(1 0 0 1 503 298.25)" class="st6 st7 st5">p2p trades</text>
<text transform="matrix(1 0 0 1 424 391.25)" class="st6 st7 st5">loans</text>
<text transform="matrix(1 0 0 1 492 391.25)" class="st6 st7 st5">options</text>
<text transform="matrix(1 0 0 1 446 345.25)" class="st6 st7 st5">registries</text>
<text transform="matrix(1 0 0 1 582 391.25)" class="st6 st7 st5">prediction markets</text>
<text transform="matrix(1 0 0 1 616 298.25)" class="st6 st7 st5">swap</text>
<text transform="matrix(1 0 0 1 700 253.25)" class="st6 st7 st5">collections</text>
<text transform="matrix(1 0 0 1 669 207.25)" class="st6 st7 st5">manage</text>
<text transform="matrix(1 0 0 1 760 207.25)" class="st6 st7 st5">registries</text>
<text transform="matrix(1 0 0 1 633 162.25)" class="st6 st7 st5">farms</text>
<text transform="matrix(1 0 0 1 705 162.25)" class="st6 st7 st5">registries</text>
<text transform="matrix(1 0 0 1 807 162.25)" class="st6 st7 st5">deposit/withdraw</text>
<path class="st4" d="M443.6,151.2l4.8,4.8l-4.8,4.8"/>
<path class="st12" d="M416.6,197.2l4.8,4.8l-4.8,4.8"/>
<path class="st12" d="M492.6,242.2l4.8,4.8l-4.8,4.8"/>
<path class="st12" d="M487.6,288.2l4.8,4.8l-4.8,4.8"/>
<path class="st12" d="M431.6,334.2l4.8,4.8l-4.8,4.8"/>
<path class="st12" d="M410.6,381.2l4.8,4.8l-4.8,4.8"/>
<path class="st12" d="M478.6,381.2l4.8,4.8l-4.8,4.8"/>
<path class="st12" d="M565.6,381.2l4.8,4.8l-4.8,4.8"/>
<path class="st12" d="M601.6,288.2l4.8,4.8l-4.8,4.8"/>
<path class="st12" d="M685.6,242.2l4.8,4.8l-4.8,4.8"/>
<path class="st12" d="M654.6,197.2l4.8,4.8l-4.8,4.8"/>
<path class="st12" d="M745.6,197.2l4.8,4.8l-4.8,4.8"/>
<path class="st12" d="M619.6,151.2l4.8,4.8l-4.8,4.8"/>
<path class="st12" d="M690.6,151.2l4.8,4.8l-4.8,4.8"/>
<path class="st12" d="M792.6,151.2l4.8,4.8l-4.8,4.8"/>
<text transform="matrix(1 0 0 1 488 114.25)" class="st8 st2 st5">send</text>
<path class="st8" d="M536.4,114v-12c0-1.99,1.61-3.6,3.6-3.6h12c1.99,0,3.6,1.61,3.6,3.6v12c0,1.99-1.61,3.6-3.6,3.6h-12
	C538.01,117.6,536.4,115.99,536.4,114z"/>
<path class="st9" d="M549.6,105.6l-5.37,4.8l-1.83-1.64"/>
<path class="st12" d="M599.6,59.2l4.8,4.8l-4.8,4.8"/>
<path class="st12" d="M627.6,105.2l4.8,4.8l-4.8,4.8"/>
<path class="st12" d="M565.6,105.2l4.8,4.8l-4.8,4.8"/>
<path class="st10" d="M471.6,105.2l4.8,4.8l-4.8,4.8"/>
<text transform="matrix(0 -1 1 0 275 49)" class="st8 st13 st14">2023</text>
<text transform="matrix(0 -1 1 0 275 440)" class="st6 st13 st14">2024</text>
<path class="st1" d="M243,201l-2.89,5h5.77L243,201z M242.5,205.5V228h1v-22.5H242.5z"/>
<path class="st1" d="M243,311l2.89-5h-5.77L243,311z M242.5,286v20.5h1V286H242.5z"/>
<text transform="matrix(0 -1 1 0 248 193.8438)" class="st8 st2 st14">Bostrom Network</text>
<text transform="matrix(0 -1 1 0 248 441)" class="st1 st11 st14">Switch Networks</text>
<text transform="matrix(0 -1 1 0 248 281.6309)" class="st1 st11 st14">Bridge</text>
<linearGradient id="SVGID_00000147182918142196105440000010985987558835685518_" gradientUnits="userSpaceOnUse" x1="269" y1="-363.5143" x2="269" y2="-645.1044" gradientTransform="matrix(1 0 0 -1 0 -214)">
	<stop  offset="0" style="stop-color:#E2FB5F"/>
	<stop  offset="1" style="stop-color:#0FEFD4"/>
</linearGradient>
<rect x="268" y="69" style="fill:url(#SVGID_00000147182918142196105440000010985987558835685518_);" width="2" height="319"/>
<linearGradient id="SVGID_00000159434525295077787010000014196695717176489384_" gradientUnits="userSpaceOnUse" x1="269" y1="61.49" x2="269" y2="388.77">
	<stop  offset="0" style="stop-color:#E2FB5F"/>
	<stop  offset="1" style="stop-color:#0FEFD4"/>
</linearGradient>
<path style="fill:url(#SVGID_00000159434525295077787010000014196695717176489384_);" d="M269,103.88c-2.49,0-4.5,1.98-4.5,4.44
	s2.01,4.44,4.5,4.44s4.5-1.98,4.5-4.44S271.49,103.88,269,103.88z M269,149.22c-2.49,0-4.5,1.98-4.5,4.44s2.01,4.44,4.5,4.44
	s4.5-1.98,4.5-4.44S271.49,149.22,269,149.22z M269,194.56c-2.49,0-4.5,1.98-4.5,4.44s2.01,4.44,4.5,4.44s4.5-1.98,4.5-4.44
	S271.49,194.56,269,194.56z M269,239.9c-2.49,0-4.5,1.98-4.5,4.44s2.01,4.44,4.5,4.44s4.5-1.98,4.5-4.44S271.49,239.9,269,239.9z
	 M269,285.24c-2.49,0-4.5,1.98-4.5,4.44s2.01,4.44,4.5,4.44s4.5-1.98,4.5-4.44S271.49,285.24,269,285.24z M269,331.56
	c-2.49,0-4.5,1.98-4.5,4.44s2.01,4.44,4.5,4.44s4.5-1.98,4.5-4.44S271.49,331.56,269,331.56z M269,379.89c-2.49,0-4.5,1.98-4.5,4.44
	s2.01,4.44,4.5,4.44s4.5-1.98,4.5-4.44S271.49,379.89,269,379.89z M269,70.37c2.49,0,4.5-1.98,4.5-4.44c0-2.45-2.01-4.44-4.5-4.44
	s-4.5,1.98-4.5,4.44S266.51,70.37,269,70.37z"/>
</svg>
